<svg width="219" height="67" viewBox="0 0 219 67" fill="none" xmlns="http://www.w3.org/2000/svg">
<path d="M214.632 26.5765C214.018 26.6492 213.334 26.4931 212.758 26.2752C212.626 26.224 212.519 26.1729 212.379 26.1675C212.036 26.1514 211.688 26.1675 211.343 26.1675C211.059 26.1675 210.774 26.1675 210.487 26.1675C210.213 22.2633 208.734 18.7143 206.443 15.9348C206.524 15.8487 206.608 15.7599 206.69 15.6738C207.022 15.3213 207.358 14.9661 207.69 14.6136C207.985 14.3015 208.094 13.9033 208.32 13.5293C208.668 12.9534 209.077 12.5122 209.616 12.1462C210.093 11.8207 210.586 11.5193 211.036 11.1507C211.422 10.8332 211.831 10.4484 211.988 9.93985C212.156 9.4044 211.92 8.91469 211.569 8.52992C211.219 8.16936 210.799 7.92182 210.296 7.98908C209.855 8.04828 209.476 8.33349 209.169 8.65907C208.496 9.38287 208.14 10.3461 207.53 11.1184C207.132 11.6269 206.56 12.0305 205.996 12.3077C205.869 12.3696 205.762 12.418 205.661 12.5176C205.392 12.7786 205.143 13.0665 204.884 13.3409C204.723 13.5104 204.563 13.6799 204.403 13.8495C202.77 12.4422 200.883 11.3579 198.82 10.6852C197.565 10.2331 196.255 9.92909 194.916 9.79724C194.916 9.56584 194.916 9.33444 194.916 9.10304C194.916 8.63216 194.916 8.16129 194.916 7.69041C194.916 7.63391 194.926 7.56664 194.914 7.51014C194.888 7.37829 194.812 7.24107 194.774 7.11191C194.672 6.77019 194.599 6.41771 194.558 6.06253C194.418 4.884 194.875 3.80772 194.985 2.65071C195.028 2.18791 195.043 1.66053 194.804 1.24885C194.545 0.80488 194.07 0.69187 193.608 0.675725C193.595 0.673035 193.575 0.673035 193.55 0.673035C193.085 0.681107 192.564 0.794117 192.224 1.15467C191.952 1.44527 191.87 1.85157 191.855 2.2471C191.822 3.24267 192.18 4.19249 192.318 5.16653C192.412 5.83113 192.295 6.5361 192.112 7.17111C192.061 7.346 191.97 7.5209 191.949 7.70118C191.909 8.04021 191.949 8.40883 191.949 8.74786C191.949 9.10304 191.949 9.45821 191.949 9.8107C188.492 10.1659 185.248 11.6027 182.604 13.9329C182.497 13.8199 182.393 13.7095 182.287 13.5965C181.969 13.2602 181.654 12.9265 181.337 12.5902C181.293 12.5445 181.248 12.4772 181.197 12.4422C181.111 12.3803 180.986 12.3453 180.89 12.2969C180.572 12.1301 180.272 11.9283 179.99 11.6996C179.056 10.9354 178.654 9.75688 177.897 8.8259C177.6 8.45996 177.227 8.11017 176.754 8.05904C176.206 7.99716 175.685 8.27968 175.301 8.67522C173.64 10.4914 176.863 11.6754 177.813 12.6413C178.301 13.1364 178.611 13.7338 178.918 14.3553C178.957 14.4333 178.979 14.471 179.038 14.5329C179.31 14.8289 179.589 15.1168 179.863 15.4074C180.082 15.6388 180.303 15.8729 180.521 16.1043C180.455 16.1877 180.384 16.2657 180.321 16.3491C178.141 19.1394 176.912 22.5889 176.65 26.1379C176.46 26.1379 176.269 26.1379 176.079 26.1379C175.652 26.1379 175.225 26.1379 174.796 26.1379C174.671 26.1379 174.562 26.1379 174.44 26.1837C173.986 26.3478 173.546 26.4904 173.061 26.5389C171.994 26.6465 170.973 26.1353 169.916 26.0518C169.441 26.0142 168.923 26.0491 168.504 26.3101C168.049 26.5954 167.877 27.0878 167.871 27.6286C167.907 30.1202 170.904 28.8152 172.246 28.643C172.842 28.5677 173.498 28.7103 174.064 28.9121C174.209 28.9632 174.339 29.0358 174.491 29.0493C174.834 29.0789 175.19 29.0493 175.535 29.0493C175.771 29.0493 176.007 29.0493 176.244 29.0493C183.143 28.2905 189.292 28.756 191.949 31.9741C194.103 34.5814 192.536 40.0624 190.387 44.9568C190.905 45.0537 191.426 45.1263 191.949 45.172C191.949 45.46 191.949 45.7506 191.949 46.0385C191.949 46.5174 191.949 46.9964 191.949 47.478C191.949 47.5399 191.939 47.6125 191.949 47.6717C191.97 47.782 192.036 47.9031 192.071 48.0107C192.173 48.3363 192.246 48.6754 192.292 49.0144C192.379 49.6494 192.323 50.1929 192.193 50.8091C192.074 51.3688 191.939 51.9257 191.881 52.4962C191.832 52.9724 191.815 53.516 192.064 53.9384C192.333 54.4012 192.841 54.5169 193.323 54.5223C193.793 54.5142 194.306 54.4039 194.649 54.0353C194.921 53.742 195.002 53.3357 195.015 52.9348C195.043 51.9365 194.69 50.9921 194.553 50.0153C194.461 49.3534 194.578 48.6458 194.761 48.0134C194.812 47.8359 194.903 47.661 194.921 47.4807C194.957 47.1417 194.921 46.7757 194.921 46.434C194.921 46.0062 194.921 45.581 194.921 45.1532C196.209 45.0294 197.484 44.7523 198.726 44.3218C200.763 43.6733 202.636 42.6213 204.261 41.2517C204.36 41.3566 204.459 41.4616 204.558 41.5665C204.884 41.9109 205.206 42.2526 205.531 42.597C205.577 42.6455 205.625 42.71 205.679 42.7531C205.757 42.815 205.856 42.8446 205.945 42.8876C206.227 43.0302 206.499 43.2024 206.756 43.3962C207.276 43.7944 207.634 44.2545 207.972 44.8196C208.277 45.3308 208.569 45.8555 208.935 46.321C209.237 46.7031 209.621 47.0771 210.103 47.1632C210.65 47.26 211.16 46.9748 211.541 46.582C213.251 44.7146 210.081 43.5495 209.08 42.5567C208.607 42.0885 208.231 41.4858 207.965 40.8615C207.924 40.7674 207.901 40.7162 207.838 40.6436C207.581 40.3476 207.299 40.0731 207.03 39.7879C206.817 39.5619 206.603 39.3359 206.39 39.1099C208.673 36.368 210.162 32.8701 210.474 29.0143C210.578 29.0143 210.68 29.0143 210.784 29.0143C211.211 29.0143 211.638 29.0143 212.067 29.0143C212.194 29.0143 212.298 29.0116 212.425 28.9659C212.908 28.791 213.378 28.643 213.893 28.6053C214.945 28.53 215.956 29.0493 217.002 29.1085C217.477 29.1354 217.983 29.0843 218.397 28.8206C218.847 28.5327 218.991 28.043 218.996 27.5129C218.963 25.0859 215.91 26.4285 214.632 26.5765ZM187.623 26.1379C185.845 26.1379 184.07 26.1379 182.292 26.1379C182.515 23.9531 183.275 21.9377 184.428 20.2426C185.353 21.222 186.28 22.2041 187.204 23.1835C187.575 23.5764 187.946 23.9692 188.317 24.3648C188.01 24.911 187.773 25.5083 187.623 26.1379ZM191.949 19.8713C191.949 20.4013 191.949 20.9287 191.949 21.4588C191.385 21.6122 190.857 21.8516 190.374 22.1638C189.056 20.7673 187.738 19.3708 186.419 17.9743C187.093 17.377 187.829 16.8604 188.619 16.4325C189.658 15.9079 190.778 15.5446 191.952 15.3724C191.949 16.8711 191.949 18.3725 191.949 19.8713ZM202.481 20.135C203.649 21.7655 204.462 23.7028 204.772 25.7935C204.79 25.9173 204.802 26.0438 204.817 26.1675C203.507 26.1675 202.194 26.1675 200.883 26.1675C200.349 26.1675 199.816 26.1675 199.283 26.1675C199.138 25.4841 198.894 24.8518 198.566 24.2814C199.869 22.8983 201.175 21.518 202.481 20.135ZM194.919 15.3643C196.999 15.6657 198.922 16.5967 200.512 17.9716C199.509 19.0345 198.505 20.0973 197.502 21.1601C197.184 21.4965 196.867 21.8328 196.547 22.1718C196.046 21.857 195.5 21.6202 194.919 21.4669C194.919 19.4327 194.919 17.3985 194.919 15.3643ZM194.919 39.6211C194.919 38.187 194.919 36.7528 194.919 35.316C194.919 34.7186 194.919 34.1213 194.919 33.524C195.432 33.384 195.919 33.1742 196.366 32.8997C197.708 34.3204 199.049 35.7411 200.388 37.1591C198.886 38.3968 197.09 39.2632 195.129 39.5888C195.061 39.6023 194.99 39.6103 194.919 39.6211ZM199.658 31.9876C199.265 31.5705 198.871 31.1534 198.477 30.7364C198.792 30.2063 199.039 29.6278 199.201 29.0197C201.073 29.0197 202.945 29.0197 204.817 29.0197C204.558 31.2046 203.723 33.2522 202.465 34.9608C201.528 33.9706 200.593 32.9804 199.658 31.9876Z" fill="#22A6FF"/>
<path d="M13.8005 32.706C13.8005 32.4127 13.5515 32.149 13.0537 31.9068C12.5558 31.6674 11.7938 31.5463 10.7701 31.5463C10.0614 31.5463 9.50005 31.5974 9.08601 31.7023C8.67197 31.8073 8.35954 31.9445 8.14871 32.1167C7.93788 32.2889 7.80071 32.4826 7.74229 32.6952C7.68386 32.9105 7.65338 33.1257 7.65338 33.3437C7.65338 33.793 7.85405 34.1859 8.25285 34.5249C8.65165 34.8639 9.17999 35.1841 9.83534 35.4882C10.4907 35.7922 11.2375 36.0936 12.0732 36.3976C12.9114 36.699 13.7675 37.038 14.6438 37.4066C15.5201 37.778 16.3787 38.2031 17.2144 38.682C18.0526 39.161 18.7969 39.726 19.4522 40.3718C20.1076 41.0203 20.6334 41.7764 21.0347 42.6428C21.4335 43.5092 21.6342 44.5101 21.6342 45.6483C21.6342 47.1094 21.3675 48.3363 20.8366 49.3265C20.3057 50.3167 19.564 51.1158 18.6115 51.7212C17.6615 52.3266 16.5336 52.7599 15.228 53.0209C13.9224 53.2819 12.4974 53.4137 10.9505 53.4137C10.0436 53.4137 9.14189 53.341 8.24523 53.1957C7.34857 53.0504 6.49509 52.8379 5.68987 52.5607C4.88211 52.2836 4.13023 51.9446 3.43678 51.5437C2.74333 51.1427 2.14132 50.688 1.6333 50.1822C1.12527 49.6763 0.726474 49.1166 0.436901 48.5085C0.147327 47.8977 0 47.2439 0 46.5443C0 46.0115 0.0787437 45.5487 0.236231 45.1505C0.393719 44.755 0.602008 44.4267 0.863641 44.1711C1.12527 43.9155 1.42247 43.7244 1.75776 43.6007C2.09306 43.4742 2.4436 43.4123 2.80683 43.4123C3.25135 43.4123 3.69333 43.5011 4.13786 43.6787C4.58238 43.8563 4.98118 44.1173 5.33425 44.4617C5.68987 44.8061 5.9769 45.2285 6.19789 45.729C6.41888 46.2295 6.53065 46.8053 6.53065 47.4511C6.53065 47.6071 6.60177 47.774 6.74402 47.9516C6.88626 48.1291 7.09455 48.2933 7.36381 48.4439C7.6356 48.5946 7.9709 48.7238 8.37732 48.826C8.7812 48.931 9.2435 48.9821 9.76676 48.9821C10.4958 48.9821 11.0775 48.9337 11.5118 48.8341C11.9462 48.7345 12.2789 48.6027 12.5101 48.4359C12.7412 48.2691 12.8911 48.0807 12.9597 47.8735C13.0283 47.6636 13.0638 47.4565 13.0638 47.2466C13.0638 46.9856 12.8809 46.7569 12.5177 46.5578C12.1519 46.3586 11.6744 46.1595 11.0851 45.955C10.4932 45.7505 9.81756 45.5353 9.05299 45.3066C8.28841 45.0779 7.51367 44.8034 6.72624 44.4859C5.9388 44.1684 5.16152 43.789 4.39949 43.3504C3.63491 42.9118 2.95924 42.3818 2.36739 41.7602C1.77554 41.1387 1.298 40.4149 0.934764 39.5834C0.568987 38.7547 0.388638 37.786 0.388638 36.6802C0.388638 35.585 0.513104 34.6029 0.764576 33.7365C1.01605 32.8701 1.37166 32.1033 1.82889 31.436C2.28611 30.7687 2.83731 30.1982 3.47742 29.722C4.11753 29.2484 4.82877 28.8556 5.61367 28.5488C6.39602 28.2421 7.23934 28.0161 8.14109 27.8761C9.04283 27.7362 9.98013 27.6636 10.9555 27.6636C12.7006 27.6636 14.184 27.8492 15.4109 28.2206C16.6378 28.5919 17.6361 29.0681 18.4032 29.652C19.1728 30.2359 19.7317 30.887 20.0796 31.6001C20.4302 32.3158 20.6055 33.0127 20.6055 33.6908C20.6055 34.3069 20.481 34.8397 20.2371 35.2864C19.9907 35.7357 19.6707 36.1043 19.277 36.3976C18.8833 36.6909 18.4336 36.9035 17.9332 37.038C17.4303 37.1726 16.9223 37.2425 16.4117 37.2425C15.9189 37.2425 15.4388 37.186 14.9715 37.0703C14.5041 36.9546 14.09 36.7824 13.7293 36.5537C13.3687 36.325 13.0791 36.0451 12.8581 35.7169C12.6371 35.3886 12.5253 35.0092 12.5253 34.5814C12.5253 34.2693 12.5914 34.0325 12.726 33.8764C12.8581 33.7204 13.0054 33.5885 13.1705 33.4863C13.3331 33.3813 13.4804 33.2764 13.615 33.1742C13.7344 33.0719 13.8005 32.9158 13.8005 32.706Z" fill="#22A6FF"/>
<path d="M42.1736 41.6149H35.5083V46.3882C35.5083 46.8591 35.5693 47.2224 35.6938 47.4834C35.8157 47.7444 35.9681 47.9435 36.1434 48.078C36.3212 48.2126 36.5117 48.3067 36.72 48.3605C36.9257 48.4117 37.1162 48.4709 37.289 48.5327C37.4617 48.5946 37.6065 48.6807 37.7259 48.7911C37.8452 48.9014 37.9037 49.0817 37.9037 49.3319C37.9037 50.6369 37.2686 51.5786 35.9986 52.1571C34.7285 52.7356 32.8895 53.0262 30.4865 53.0262C29.3231 53.0262 28.2919 52.9563 27.3901 52.8137C26.4884 52.6711 25.7289 52.4531 25.1142 52.1571C24.4995 51.8585 24.0295 51.4764 23.7095 51.0055C23.3894 50.5346 23.2294 49.9777 23.2294 49.3319C23.2294 49.0817 23.2878 48.9014 23.4072 48.7911C23.5266 48.6807 23.6714 48.5973 23.8441 48.5408C24.0168 48.4843 24.2048 48.4278 24.4055 48.3767C24.6061 48.3256 24.7941 48.2341 24.9668 48.1022C25.1396 47.9731 25.2844 47.782 25.4037 47.5318C25.5231 47.2816 25.5816 46.921 25.5816 46.4528V34.6487C25.5816 34.1885 25.5231 33.8334 25.4037 33.5751C25.2844 33.3194 25.1396 33.1257 24.9668 32.9966C24.7941 32.8674 24.6061 32.7759 24.4055 32.7221C24.2023 32.671 24.0168 32.6145 23.8441 32.558C23.6714 32.5015 23.5266 32.4181 23.4072 32.3077C23.2878 32.1974 23.2294 32.0171 23.2294 31.7669C23.2294 31.1211 23.3894 30.5641 23.7095 30.0987C24.0295 29.6332 24.4969 29.2538 25.1142 28.9551C25.7289 28.6564 26.4884 28.4385 27.3901 28.2986C28.2919 28.1586 29.3231 28.086 30.4865 28.086C31.688 28.086 32.7523 28.156 33.6795 28.2986C34.6066 28.4385 35.3813 28.6591 36.0062 28.9551C36.6311 29.2538 37.1035 29.6332 37.4236 30.0987C37.7436 30.5641 37.9037 31.1184 37.9037 31.7669C37.9037 32.0171 37.8452 32.1974 37.7259 32.3077C37.6065 32.4181 37.4617 32.5015 37.289 32.558C37.1162 32.6145 36.9257 32.671 36.72 32.7221C36.5142 32.7732 36.3237 32.8647 36.151 32.9966C35.9783 33.1284 35.8335 33.3194 35.7141 33.5751C35.5947 33.8307 35.5363 34.1885 35.5363 34.6487V38.5932H42.1711V34.6487C42.1711 34.1885 42.1127 33.8334 41.9933 33.5751C41.8739 33.3194 41.7291 33.1257 41.5564 32.9966C41.3836 32.8674 41.1931 32.7759 40.9874 32.7221C40.7816 32.671 40.5911 32.6145 40.4184 32.558C40.2457 32.5015 40.1009 32.4181 39.9815 32.3077C39.8621 32.1974 39.8037 32.0171 39.8037 31.7669C39.8037 30.4727 40.4362 29.5363 41.7037 28.9578C42.9687 28.3793 44.8103 28.0887 47.2234 28.0887C49.5984 28.0887 51.4146 28.3793 52.677 28.9578C53.9369 29.5363 54.5694 30.4727 54.5694 31.7669C54.5694 32.0171 54.5084 32.1974 54.384 32.3077C54.2595 32.4181 54.1071 32.5015 53.9267 32.558C53.7439 32.6145 53.5457 32.671 53.3273 32.7221C53.1114 32.7732 52.9107 32.8647 52.7278 32.9966C52.5449 33.1284 52.3925 33.3194 52.2706 33.5751C52.1461 33.8307 52.0852 34.1885 52.0852 34.6487V46.3882C52.0852 46.8591 52.1461 47.2224 52.2706 47.4834C52.3925 47.7444 52.5475 47.9435 52.7278 48.078C52.9107 48.2126 53.1088 48.3067 53.3273 48.3605C53.5432 48.4117 53.7439 48.4709 53.9267 48.5327C54.1096 48.5946 54.262 48.6807 54.384 48.7911C54.5059 48.9014 54.5694 49.0817 54.5694 49.3319C54.5694 49.9804 54.4094 50.5373 54.0893 51.0055C53.7693 51.4764 53.2993 51.8585 52.677 52.1571C52.0572 52.4558 51.2876 52.6738 50.3706 52.8137C49.4536 52.9536 48.4045 53.0262 47.2234 53.0262C46.0219 53.0262 44.9576 52.9563 44.0304 52.8137C43.1033 52.6738 42.3286 52.4531 41.7037 52.1571C41.0788 51.8585 40.6038 51.4764 40.2863 51.0055C39.9662 50.5346 39.8062 49.9777 39.8062 49.3319C39.8062 49.0817 39.8646 48.9014 39.984 48.7911C40.1034 48.6807 40.2482 48.5946 40.4209 48.5327C40.5937 48.4709 40.7842 48.4117 40.9899 48.3605C41.1957 48.3094 41.3862 48.2152 41.5589 48.078C41.7316 47.9435 41.8764 47.7471 41.9958 47.4914C42.1152 47.2358 42.1736 46.8672 42.1736 46.3882V41.6149V41.6149Z" fill="#22A6FF"/>
<path d="M75.1596 34.6487C75.4441 34.4604 75.627 34.2693 75.7057 34.0783C75.7845 33.8845 75.8251 33.7258 75.8251 33.602C75.8251 33.4244 75.7438 33.2657 75.5813 33.1258C75.4187 32.9858 75.2358 32.8379 75.0352 32.6872C74.8319 32.5365 74.6516 32.3724 74.489 32.1948C74.3265 32.0172 74.2452 31.8046 74.2452 31.5517C74.2452 30.8844 74.4001 30.3247 74.71 29.8754C75.0199 29.426 75.4289 29.0709 75.9369 28.8099C76.4449 28.5489 77.0215 28.3632 77.6667 28.2529C78.3119 28.1426 78.9698 28.0887 79.6404 28.0887C80.4278 28.0887 81.1746 28.1506 81.8782 28.2771C82.5819 28.4036 83.2016 28.5946 83.7325 28.8556C84.2634 29.1166 84.6876 29.4556 85.0026 29.8727C85.3176 30.2897 85.4751 30.7848 85.4751 31.3607C85.4751 31.7266 85.3836 32.0172 85.2007 32.2378C85.0178 32.4558 84.7714 32.6414 84.4615 32.7921C84.1516 32.9428 83.7935 33.0746 83.3896 33.1823C82.9857 33.2926 82.5666 33.4191 82.1323 33.567C81.6979 33.7123 81.2635 33.898 80.8241 34.124C80.3847 34.3473 79.9782 34.6433 79.6048 35.0093L76.4856 38.0632L82.6631 46.391C82.968 46.808 83.2702 47.1309 83.5725 47.3623C83.8722 47.591 84.1567 47.774 84.4234 47.9112C84.6902 48.0458 84.9365 48.1534 85.1626 48.2314C85.3887 48.3095 85.5868 48.401 85.7545 48.5059C85.9221 48.6108 86.0517 48.7534 86.1456 48.9364C86.2396 49.1194 86.2854 49.3831 86.2854 49.7275C86.2854 50.8845 85.6808 51.7267 84.4742 52.2487C83.2677 52.7707 81.5201 53.0317 79.2365 53.0317C78.0935 53.0317 77.0698 52.959 76.163 52.8137C75.2561 52.6684 74.4865 52.4397 73.8515 52.133C73.2164 51.8262 72.7313 51.4334 72.396 50.9598C72.0607 50.4863 71.893 49.9131 71.893 49.2458C71.893 48.9848 71.9794 48.7857 72.1521 48.6512C72.3248 48.5166 72.5153 48.3983 72.7211 48.2987C72.9268 48.1991 73.1174 48.0969 73.2901 47.9947C73.4628 47.8897 73.5492 47.7337 73.5492 47.5238C73.5492 47.3892 73.506 47.2386 73.4247 47.0771C73.3409 46.9157 73.2113 46.7085 73.0335 46.4583L70.4909 42.9361C70.3918 42.8016 70.275 42.6939 70.1353 42.6159C69.9981 42.5379 69.8508 42.4787 69.6984 42.4356C69.5459 42.3953 69.3834 42.3711 69.2107 42.3657C69.0379 42.3603 68.8677 42.3576 68.7001 42.3576H68.4054V46.3964C68.4054 46.8672 68.4639 47.2305 68.5832 47.4915C68.7026 47.7525 68.85 47.9516 69.0278 48.0861C69.2056 48.2207 69.3961 48.3148 69.6044 48.3687C69.8101 48.4198 70.0032 48.479 70.181 48.5409C70.3588 48.6028 70.5061 48.6889 70.6255 48.7992C70.7449 48.9095 70.8033 49.0898 70.8033 49.34C70.8033 50.645 70.1683 51.5868 68.8982 52.1653C67.6282 52.7438 65.7891 53.0344 63.3862 53.0344C62.2228 53.0344 61.1915 52.9644 60.2897 52.8218C59.388 52.6792 58.6285 52.4612 58.0138 52.1653C57.3991 51.8666 56.9292 51.4845 56.6091 51.0136C56.2891 50.5428 56.129 49.9858 56.129 49.34C56.129 49.0898 56.1875 48.9095 56.3068 48.7992C56.4262 48.6889 56.571 48.6054 56.7437 48.5489C56.9165 48.4924 57.1044 48.4359 57.3051 48.3848C57.5058 48.3337 57.6937 48.2422 57.8665 48.1104C58.0392 47.9812 58.184 47.7902 58.3034 47.5399C58.4228 47.2897 58.4812 46.9291 58.4812 46.4609V34.6568C58.4812 34.1967 58.4228 33.8415 58.3034 33.5832C58.184 33.3276 58.0392 33.1338 57.8665 33.0047C57.6937 32.8755 57.5058 32.784 57.3051 32.7302C57.1019 32.6791 56.9165 32.6226 56.7437 32.5661C56.571 32.5096 56.4262 32.4262 56.3068 32.3159C56.1875 32.2055 56.129 32.0253 56.129 31.775C56.129 31.1293 56.2891 30.5723 56.6091 30.1068C56.9292 29.6413 57.3965 29.2619 58.0138 28.9632C58.6285 28.6646 59.388 28.4466 60.2897 28.3067C61.1915 28.1668 62.2228 28.0941 63.3862 28.0941C64.5876 28.0941 65.6519 28.1641 66.5791 28.3067C67.5062 28.4466 68.281 28.6672 68.9058 28.9632C69.5307 29.2619 70.0032 29.6413 70.3232 30.1068C70.6433 30.5723 70.8033 31.1266 70.8033 31.775C70.8033 32.0253 70.7449 32.2055 70.6255 32.3159C70.5061 32.4262 70.3588 32.5096 70.181 32.5661C70.0032 32.6226 69.8127 32.6791 69.6044 32.7302C69.3986 32.7814 69.2056 32.8728 69.0278 33.0047C68.85 33.1365 68.7026 33.3276 68.5832 33.5832C68.4639 33.8388 68.4054 34.1967 68.4054 34.6568V39.5404C68.6823 39.5404 68.9719 39.5243 69.2767 39.4947C69.5815 39.4624 69.8584 39.3494 70.1048 39.1503L75.1596 34.6487Z" fill="#22A6FF"/>
<path d="M96.0699 32.2835C97.3907 32.2835 98.5795 32.4934 99.6387 32.9104C100.698 33.3275 101.6 33.9033 102.344 34.6325C103.088 35.3617 103.66 36.22 104.059 37.2075C104.457 38.195 104.658 39.2551 104.658 40.3933C104.658 40.8642 104.597 41.2274 104.473 41.4884C104.348 41.7494 104.175 41.9432 103.947 42.0669C103.721 42.1907 103.439 42.2714 103.103 42.301C102.768 42.3333 102.39 42.3468 101.965 42.3468H94.8582C94.8582 43.4957 94.97 44.4267 95.191 45.1397C95.412 45.8555 95.7193 46.4098 96.1156 46.808C96.5093 47.2035 96.9818 47.4726 97.533 47.6152C98.0842 47.7551 98.6963 47.8278 99.3644 47.8278C99.72 47.8278 100.086 47.7928 100.464 47.7174C100.843 47.6448 101.209 47.5506 101.559 47.4349C101.91 47.3192 102.232 47.2008 102.527 47.0744C102.822 46.9479 103.068 46.8295 103.266 46.7138C103.424 46.6196 103.576 46.5739 103.723 46.5739C103.949 46.5739 104.127 46.6761 104.254 46.8779C104.381 47.0824 104.447 47.3085 104.447 47.5587C104.447 47.6421 104.442 47.7201 104.432 47.7928C104.422 47.8654 104.401 47.9381 104.374 48.0107C104.086 48.783 103.698 49.4987 103.205 50.1552C102.712 50.8118 102.113 51.3849 101.409 51.8692C100.706 52.3535 99.8902 52.7329 98.9631 53.0047C98.0359 53.2765 96.997 53.411 95.8438 53.411C94.7414 53.411 93.733 53.2738 92.821 52.9966C91.9091 52.7195 91.0861 52.3347 90.3521 51.8369C89.618 51.3418 88.9753 50.7606 88.4241 50.0907C87.8729 49.4234 87.4131 48.6942 87.0499 47.9058C86.6841 47.1174 86.4123 46.2941 86.2294 45.433C86.0466 44.572 85.9551 43.7029 85.9551 42.8257C85.9551 41.9378 86.0491 41.0606 86.2371 40.1888C86.425 39.317 86.7044 38.491 87.0804 37.708C87.4538 36.925 87.9237 36.2039 88.4851 35.5393C89.0464 34.8774 89.7018 34.3015 90.4511 33.8172C91.2005 33.3329 92.0412 32.9535 92.9785 32.6817C93.9184 32.4207 94.9471 32.2835 96.0699 32.2835ZM97.1647 36.2927C96.8497 36.2927 96.5525 36.368 96.2782 36.5187C96.0013 36.6694 95.7625 36.9035 95.5618 37.2156C95.3586 37.5277 95.2011 37.9286 95.0894 38.413C94.9751 38.8973 94.9192 39.4758 94.9192 40.1431H99.6336C99.6336 39.4139 99.5803 38.8004 99.4711 38.3026C99.3619 37.8075 99.2044 37.4093 98.9986 37.1133C98.7929 36.8174 98.5338 36.6048 98.2239 36.4783C97.9089 36.3546 97.5584 36.2927 97.1647 36.2927Z" fill="#22A6FF"/>
<path d="M115.946 32.2835C117.267 32.2835 118.456 32.4934 119.515 32.9104C120.574 33.3275 121.476 33.9033 122.22 34.6325C122.965 35.3617 123.536 36.22 123.935 37.2075C124.334 38.195 124.534 39.2551 124.534 40.3933C124.534 40.8642 124.473 41.2274 124.349 41.4884C124.225 41.7494 124.052 41.9432 123.823 42.0669C123.597 42.1907 123.315 42.2714 122.98 42.301C122.645 42.3333 122.266 42.3468 121.842 42.3468H114.735C114.735 43.4957 114.846 44.4267 115.067 45.1397C115.288 45.8555 115.596 46.4098 115.992 46.808C116.386 47.2035 116.858 47.4726 117.409 47.6152C117.961 47.7551 118.573 47.8278 119.241 47.8278C119.596 47.8278 119.962 47.7928 120.341 47.7174C120.719 47.6448 121.085 47.5506 121.436 47.4349C121.786 47.3192 122.109 47.2008 122.403 47.0744C122.698 46.9479 122.944 46.8295 123.142 46.7138C123.3 46.6196 123.452 46.5739 123.6 46.5739C123.826 46.5739 124.004 46.6761 124.131 46.8779C124.258 47.0824 124.324 47.3085 124.324 47.5587C124.324 47.6421 124.319 47.7201 124.308 47.7928C124.298 47.8654 124.278 47.9381 124.25 48.0107C123.963 48.783 123.574 49.4987 123.082 50.1552C122.589 50.8118 121.989 51.3849 121.286 51.8692C120.582 52.3535 119.767 52.7329 118.839 53.0047C117.912 53.2765 116.873 53.411 115.72 53.411C114.618 53.411 113.609 53.2738 112.697 52.9966C111.786 52.7195 110.963 52.3347 110.228 51.8369C109.494 51.3418 108.852 50.7606 108.301 50.0907C107.749 49.4234 107.29 48.6942 106.926 47.9058C106.561 47.1174 106.289 46.2941 106.106 45.433C105.923 44.572 105.832 43.7029 105.832 42.8257C105.832 41.9378 105.926 41.0606 106.114 40.1888C106.301 39.317 106.581 38.491 106.957 37.708C107.33 36.925 107.8 36.2039 108.362 35.5393C108.923 34.8774 109.578 34.3015 110.328 33.8172C111.077 33.3329 111.918 32.9535 112.855 32.6817C113.795 32.4207 114.824 32.2835 115.946 32.2835ZM117.041 36.2927C116.726 36.2927 116.429 36.368 116.155 36.5187C115.878 36.6694 115.639 36.9035 115.438 37.2156C115.235 37.5277 115.078 37.9286 114.966 38.413C114.852 38.8973 114.796 39.4758 114.796 40.1431H119.51C119.51 39.4139 119.457 38.8004 119.348 38.3026C119.238 37.8075 119.081 37.4093 118.875 37.1133C118.669 36.8174 118.41 36.6048 118.1 36.4783C117.785 36.3546 117.435 36.2927 117.041 36.2927Z" fill="#22A6FF"/>
<path d="M149.39 42.9925C149.39 43.7971 149.344 44.6097 149.25 45.4357C149.156 46.2591 148.996 47.0582 148.77 47.8304C148.544 48.6027 148.241 49.3292 147.868 50.0072C147.495 50.6853 147.027 51.2773 146.471 51.7831C145.915 52.289 145.254 52.6899 144.49 52.9805C143.725 53.2711 142.846 53.4191 141.85 53.4191C140.728 53.4191 139.76 53.2926 138.947 53.0424C138.134 52.7921 137.443 52.4881 136.872 52.1329V55.7815C136.872 56.2201 136.925 56.5564 137.034 56.7905C137.144 57.0246 137.276 57.2022 137.433 57.3233C137.591 57.4444 137.766 57.5278 137.959 57.5735C138.152 57.6193 138.325 57.6704 138.485 57.7215C138.642 57.7726 138.774 57.848 138.884 57.9475C138.993 58.0471 139.046 58.2112 139.046 58.4399C139.046 59.6292 138.464 60.4876 137.301 61.0149C136.138 61.5423 134.459 61.806 132.262 61.806C131.207 61.806 130.273 61.7441 129.455 61.6177C128.637 61.4912 127.948 61.2921 127.385 61.0149C126.823 60.7378 126.396 60.388 126.107 59.9656C125.817 59.5431 125.67 59.0346 125.67 58.4399C125.67 58.2112 125.721 58.0471 125.825 57.9475C125.929 57.848 126.061 57.7726 126.224 57.7215C126.386 57.6704 126.559 57.622 126.742 57.5816C126.925 57.5385 127.097 57.4578 127.26 57.3394C127.423 57.2184 127.555 57.0461 127.659 56.8228C127.763 56.5995 127.814 56.2712 127.814 55.8434V38.7009C127.814 38.2838 127.763 37.9609 127.659 37.7295C127.555 37.5008 127.423 37.3259 127.26 37.2048C127.097 37.0837 126.925 37.003 126.742 36.9627C126.559 36.9223 126.386 36.8739 126.224 36.8227C126.061 36.7716 125.929 36.6963 125.825 36.5967C125.721 36.4972 125.67 36.333 125.67 36.1043C125.67 35.5097 125.815 35.0011 126.107 34.5787C126.396 34.1562 126.823 33.8065 127.385 33.5293C127.946 33.2522 128.637 33.0531 129.455 32.9266C130.273 32.8001 131.207 32.7382 132.262 32.7382C133.415 32.7382 134.304 32.827 134.929 33.0046C135.554 33.1822 136.011 33.4943 136.295 33.9437C136.572 33.7257 136.887 33.5159 137.24 33.3167C137.596 33.1176 137.997 32.9427 138.444 32.7921C138.891 32.6414 139.389 32.5176 139.938 32.4234C140.484 32.3292 141.094 32.2835 141.764 32.2835C142.76 32.2835 143.641 32.4342 144.408 32.7382C145.178 33.0423 145.844 33.4513 146.41 33.9679C146.976 34.4845 147.449 35.0926 147.827 35.7922C148.206 36.4918 148.513 37.2371 148.744 38.0309C148.976 38.8246 149.141 39.6426 149.24 40.4875C149.339 41.3324 149.39 42.1665 149.39 42.9925ZM136.872 49.0197C137.078 49.1032 137.291 49.165 137.507 49.2081C137.723 49.2511 137.946 49.27 138.172 49.27C138.724 49.27 139.148 49.1785 139.442 48.9955C139.737 48.8126 139.956 48.487 140.093 48.0161C140.23 47.5452 140.311 46.9102 140.337 46.1057C140.362 45.3012 140.375 44.2841 140.375 43.0544C140.375 41.7602 140.331 40.6785 140.243 39.8067C140.154 38.935 140.011 38.2407 139.813 37.7241C139.615 37.2075 139.361 36.8389 139.046 36.6209C138.731 36.403 138.348 36.2927 137.893 36.2927C137.715 36.2927 137.537 36.3088 137.362 36.3384C137.184 36.3707 137.022 36.4164 136.874 36.4783C136.895 36.8012 136.905 37.1456 136.905 37.5116C136.905 37.8775 136.905 38.273 136.905 38.7009L136.872 49.0197Z" fill="#22A6FF"/>
<path d="M160.932 32.2835C162.253 32.2835 163.441 32.4934 164.501 32.9104C165.56 33.3275 166.462 33.9033 167.206 34.6325C167.95 35.3617 168.522 36.22 168.92 37.2075C169.319 38.195 169.52 39.2551 169.52 40.3933C169.52 40.8642 169.459 41.2274 169.335 41.4884C169.21 41.7494 169.037 41.9432 168.809 42.0669C168.583 42.1907 168.301 42.2714 167.965 42.301C167.63 42.3333 167.252 42.3468 166.827 42.3468H159.72C159.72 43.4957 159.832 44.4267 160.053 45.1397C160.274 45.8555 160.581 46.4098 160.978 46.808C161.371 47.2035 161.844 47.4726 162.395 47.6152C162.946 47.7551 163.558 47.8278 164.226 47.8278C164.582 47.8278 164.948 47.7928 165.326 47.7174C165.705 47.6448 166.07 47.5506 166.421 47.4349C166.772 47.3192 167.094 47.2008 167.389 47.0744C167.683 46.9479 167.93 46.8295 168.128 46.7138C168.285 46.6196 168.438 46.5739 168.585 46.5739C168.811 46.5739 168.989 46.6761 169.116 46.8779C169.243 47.0824 169.309 47.3085 169.309 47.5587C169.309 47.6421 169.304 47.7201 169.294 47.7928C169.284 47.8654 169.263 47.9381 169.235 48.0107C168.948 48.783 168.56 49.4987 168.067 50.1552C167.574 50.8118 166.975 51.3849 166.271 51.8692C165.568 52.3535 164.752 52.7329 163.825 53.0047C162.898 53.2765 161.859 53.411 160.706 53.411C159.603 53.411 158.595 53.2738 157.683 52.9966C156.771 52.7195 155.948 52.3347 155.214 51.8369C154.48 51.3418 153.837 50.7606 153.286 50.0907C152.735 49.4234 152.275 48.6942 151.912 47.9058C151.546 47.1174 151.274 46.2941 151.091 45.433C150.909 44.572 150.817 43.7029 150.817 42.8257C150.817 41.9378 150.911 41.0606 151.099 40.1888C151.287 39.317 151.566 38.491 151.942 37.708C152.316 36.925 152.786 36.2039 153.347 35.5393C153.908 34.8774 154.564 34.3015 155.313 33.8172C156.062 33.3329 156.903 32.9535 157.841 32.6817C158.778 32.4207 159.809 32.2835 160.932 32.2835ZM162.024 36.2927C161.709 36.2927 161.412 36.368 161.138 36.5187C160.861 36.6694 160.622 36.9035 160.421 37.2156C160.218 37.5277 160.061 37.9286 159.949 38.413C159.834 38.8973 159.779 39.4758 159.779 40.1431H164.493C164.493 39.4139 164.44 38.8004 164.331 38.3026C164.221 37.8075 164.064 37.4093 163.858 37.1133C163.652 36.8174 163.393 36.6048 163.083 36.4783C162.771 36.3546 162.418 36.2927 162.024 36.2927Z" fill="#22A6FF"/>
<path d="M181.575 46.999C181.575 47.4268 181.629 47.7605 181.738 48C181.847 48.2394 181.982 48.4197 182.144 48.5408C182.307 48.6619 182.482 48.7453 182.668 48.791C182.856 48.8368 183.031 48.8879 183.193 48.939C183.356 48.9902 183.491 49.0682 183.6 49.165C183.709 49.2646 183.762 49.4287 183.762 49.6574C183.762 50.8467 183.181 51.7051 182.017 52.2325C180.854 52.7598 179.175 53.0235 176.978 53.0235C175.913 53.0235 174.974 52.9616 174.156 52.8352C173.338 52.7114 172.649 52.5096 172.085 52.2325C171.524 51.9553 171.097 51.6055 170.808 51.1831C170.518 50.7606 170.371 50.2521 170.371 49.6574C170.371 49.4287 170.424 49.2646 170.533 49.165C170.643 49.0655 170.775 48.9902 170.932 48.939C171.09 48.8879 171.262 48.8395 171.45 48.7991C171.638 48.7587 171.811 48.6753 171.969 48.5569C172.126 48.4359 172.258 48.2637 172.367 48.0403C172.477 47.817 172.53 47.4887 172.53 47.0609V38.7009C172.53 38.2838 172.477 37.9609 172.367 37.7295C172.258 37.5008 172.126 37.3259 171.969 37.2048C171.811 37.0837 171.638 37.003 171.45 36.9627C171.262 36.9223 171.09 36.8739 170.932 36.8227C170.775 36.7716 170.643 36.6963 170.533 36.5967C170.424 36.4972 170.371 36.333 170.371 36.1043C170.371 35.5097 170.516 35.0011 170.808 34.5787C171.1 34.1563 171.524 33.8065 172.085 33.5293C172.647 33.2522 173.338 33.0531 174.156 32.9266C174.974 32.8001 175.913 32.7382 176.978 32.7382C177.953 32.7382 178.733 32.8405 179.32 33.0423C179.907 33.2468 180.366 33.5455 180.702 33.9437C180.978 33.7553 181.263 33.5751 181.558 33.4029C181.852 33.2306 182.167 33.08 182.503 32.9481C182.838 32.819 183.201 32.7167 183.597 32.6441C183.991 32.5714 184.425 32.5338 184.898 32.5338C185.49 32.5338 186.059 32.5983 186.605 32.7302C187.151 32.862 187.636 33.0746 188.06 33.3733C188.485 33.6719 188.822 34.0567 189.074 34.533C189.325 35.0092 189.45 35.5958 189.45 36.2954C189.45 36.7555 189.376 37.2021 189.229 37.6407C189.081 38.0793 188.86 38.4668 188.571 38.8058C188.281 39.1448 187.916 39.4193 187.476 39.6265C187.037 39.8363 186.534 39.9386 185.962 39.9386C185.391 39.9386 184.944 39.8498 184.618 39.6722C184.293 39.4946 184.042 39.2767 183.864 39.0157C183.686 38.7547 183.557 38.4695 183.473 38.1627C183.389 37.856 183.3 37.5708 183.206 37.3098C183.112 37.0488 182.99 36.8308 182.838 36.6532C182.685 36.4756 182.457 36.3869 182.149 36.3869C181.845 36.3869 181.641 36.4272 181.542 36.5052C181.443 36.5833 181.395 36.6963 181.395 36.8416C181.395 37.0299 181.431 37.2694 181.499 37.5627C181.568 37.856 181.603 38.2112 181.603 38.6282L181.575 46.999Z" fill="#22A6FF"/>
<path d="M4.18105 58.187L3.64508 58.7736C3.20056 58.3162 2.76366 58.0875 2.33692 58.0875C2.06513 58.0875 1.83398 58.1816 1.64093 58.37C1.44788 58.5583 1.35135 58.779 1.35135 59.0319C1.35135 59.2552 1.4301 59.4678 1.59013 59.6696C1.75015 59.8768 2.08291 60.1163 2.59347 60.3961C3.21326 60.7378 3.63492 61.0634 3.85845 61.3809C4.0769 61.7011 4.18613 62.059 4.18613 62.4599C4.18613 63.0222 3.99816 63.5012 3.62476 63.8913C3.25136 64.2815 2.78398 64.4779 2.22262 64.4779C1.84922 64.4779 1.49106 64.3918 1.15323 64.2196C0.81539 64.0474 0.533436 63.8106 0.309906 63.5066L0.83317 62.8769C1.25991 63.3855 1.70951 63.6411 2.18705 63.6411C2.52235 63.6411 2.8043 63.5281 3.04053 63.2994C3.27676 63.0707 3.39361 62.8043 3.39361 62.4976C3.39361 62.2446 3.31487 62.0213 3.15992 61.8222C3.00497 61.6284 2.65444 61.3863 2.11085 61.0903C1.52662 60.7701 1.12782 60.4553 0.916994 60.1432C0.706164 59.8311 0.60202 59.4759 0.60202 59.0776C0.60202 58.5556 0.769667 58.1224 1.10496 57.778C1.44026 57.4336 1.86446 57.2614 2.37756 57.2614C2.97703 57.2614 3.57904 57.5682 4.18105 58.187Z" fill="white"/>
<path d="M11.9893 62.0213L12.6929 62.4114C12.4618 62.8904 12.1951 63.2779 11.8954 63.5711C11.5956 63.8644 11.2527 64.0904 10.8768 64.2438C10.5008 64.3972 10.0715 64.4752 9.59654 64.4752C8.53986 64.4752 7.71432 64.1093 7.11739 63.3747C6.52046 62.6402 6.22327 61.8114 6.22327 60.8858C6.22327 60.0167 6.47474 59.2391 6.98022 58.5583C7.62033 57.6919 8.47635 57.2587 9.54828 57.2587C10.6532 57.2587 11.5347 57.7027 12.1951 58.5906C12.665 59.2176 12.9012 59.9979 12.9089 60.9369H7.07929C7.09453 61.7334 7.33584 62.3872 7.80068 62.8958C8.26552 63.4043 8.83959 63.6599 9.52288 63.6599C9.8531 63.6599 10.1732 63.598 10.4856 63.477C10.798 63.3559 11.0622 63.1944 11.2806 62.9926C11.4991 62.7935 11.7353 62.4706 11.9893 62.0213ZM11.9893 60.1728C11.8776 59.7019 11.715 59.3252 11.5042 59.0427C11.2908 58.7601 11.0114 58.5341 10.6609 58.3619C10.3103 58.1897 9.94454 58.1036 9.55844 58.1036C8.92341 58.1036 8.37729 58.3189 7.92007 58.7521C7.58731 59.0669 7.3333 59.5405 7.16311 60.1701H11.9893V60.1728Z" fill="white"/>
<path d="M15.2128 54.7887H16.0459V64.2977H15.2128V54.7887Z" fill="white"/>
<path d="M21.3243 54.7886V55.6524C21.0195 55.5124 20.7579 55.4452 20.5394 55.4452C20.3768 55.4452 20.2422 55.4801 20.1355 55.5501C20.0288 55.6201 19.9603 55.6981 19.9323 55.7896C19.9044 55.8811 19.8917 56.1205 19.8917 56.5107V57.439H21.243V58.2031H19.8891L19.8841 64.3003H19.0509V58.2005H18.2V57.4363H19.0509V56.3654C19.0509 55.873 19.0941 55.5232 19.1779 55.3133C19.2617 55.1034 19.4091 54.9339 19.6123 54.8048C19.8155 54.6756 20.0644 54.6137 20.354 54.6137C20.6232 54.611 20.9484 54.6702 21.3243 54.7886Z" fill="white"/>
<path d="M27.6162 54.7887H28.4493V58.666C28.7872 58.1951 29.158 57.8427 29.5619 57.6086C29.9658 57.3745 30.4052 57.2588 30.8777 57.2588C31.3629 57.2588 31.7921 57.3879 32.1655 57.6489C32.5389 57.9099 32.8183 58.2597 32.9962 58.6983C33.174 59.1369 33.2629 59.8257 33.2629 60.7648V64.295H32.4297V61.0258C32.4297 60.2347 32.3992 59.7073 32.3408 59.4436C32.2367 58.9889 32.0512 58.6472 31.7794 58.4185C31.5076 58.1898 31.152 58.0741 30.71 58.0741C30.2071 58.0741 29.755 58.2516 29.3562 58.6041C28.9574 58.9566 28.6932 59.3952 28.5662 59.9172C28.4874 60.2535 28.4468 60.8751 28.4468 61.7846V64.3004H27.6136V54.7887H27.6162Z" fill="white"/>
<path d="M38.9959 57.2614C39.9942 57.2614 40.8197 57.6435 41.4776 58.4104C42.0746 59.1072 42.3717 59.9333 42.3717 60.8885C42.3717 61.8464 42.0568 62.6859 41.4268 63.4016C40.7969 64.1174 39.9866 64.4779 38.9959 64.4779C38.0027 64.4779 37.1899 64.1201 36.5599 63.4016C35.93 62.6859 35.615 61.8464 35.615 60.8885C35.615 59.9387 35.9122 59.1153 36.5091 58.4157C37.1645 57.6462 37.9951 57.2614 38.9959 57.2614ZM38.9934 58.1251C38.2999 58.1251 37.7055 58.3969 37.2077 58.9377C36.7098 59.4786 36.4609 60.1351 36.4609 60.9046C36.4609 61.3997 36.5752 61.8625 36.8013 62.2931C37.0273 62.7209 37.3347 63.0518 37.7208 63.2859C38.1069 63.52 38.5311 63.6357 38.9934 63.6357C39.4557 63.6357 39.8799 63.52 40.266 63.2859C40.6521 63.0518 40.9594 62.7209 41.1855 62.2931C41.4116 61.8652 41.5259 61.4024 41.5259 60.9046C41.5259 60.1351 41.277 59.4786 40.7765 58.9377C40.2761 58.3942 39.6818 58.1251 38.9934 58.1251Z" fill="white"/>
<path d="M48.0489 58.187L47.513 58.7736C47.0684 58.3162 46.6315 58.0875 46.2048 58.0875C45.933 58.0875 45.7018 58.1816 45.5088 58.37C45.3157 58.5583 45.2192 58.779 45.2192 59.0319C45.2192 59.2552 45.298 59.4678 45.458 59.6696C45.618 59.8768 45.9508 60.1163 46.4613 60.3961C47.0811 60.7378 47.5028 61.0634 47.7263 61.3809C47.9448 61.7011 48.054 62.059 48.054 62.4599C48.054 63.0222 47.866 63.5012 47.4926 63.8913C47.1192 64.2815 46.6519 64.4779 46.0905 64.4779C45.7171 64.4779 45.3589 64.3918 45.0211 64.2196C44.6833 64.0474 44.4013 63.8106 44.1778 63.5066L44.701 62.8769C45.1278 63.3855 45.5774 63.6411 46.0549 63.6411C46.3902 63.6411 46.6722 63.5281 46.9084 63.2994C47.1446 63.0707 47.2615 62.8043 47.2615 62.4976C47.2615 62.2446 47.1827 62.0213 47.0278 61.8222C46.8728 61.6284 46.5223 61.3863 45.9787 61.0903C45.3945 60.7701 44.9957 60.4553 44.7849 60.1432C44.574 59.8311 44.4699 59.4759 44.4699 59.0776C44.4699 58.5556 44.6375 58.1224 44.9728 57.778C45.3081 57.4336 45.7323 57.2614 46.2454 57.2614C46.8424 57.2614 47.4444 57.5682 48.0489 58.187Z" fill="white"/>
<path d="M51.1275 54.8882H51.9607V57.4364H53.2816V58.2005H51.9607V64.2977H51.1275V58.2005H49.9896V57.4364H51.1275V54.8882Z" fill="white"/>
<path d="M60.8663 62.0213L61.5699 62.4114C61.3388 62.8904 61.0721 63.2779 60.7723 63.5711C60.4726 63.8644 60.1297 64.0904 59.7538 64.2438C59.3778 64.3972 58.9485 64.4752 58.4735 64.4752C57.4168 64.4752 56.5913 64.1093 55.9944 63.3747C55.3974 62.6402 55.1003 61.8114 55.1003 60.8858C55.1003 60.0167 55.3517 59.2391 55.8572 58.5583C56.4973 57.6919 57.3533 57.2587 58.4253 57.2587C59.5302 57.2587 60.4117 57.7027 61.0721 58.5906C61.542 59.2176 61.7782 59.9979 61.7859 60.9369H55.9563C55.9715 61.7334 56.2128 62.3872 56.6777 62.8958C57.1425 63.4043 57.7166 63.6599 58.3999 63.6599C58.7301 63.6599 59.0501 63.598 59.3626 63.477C59.675 63.3559 59.9392 63.1944 60.1576 62.9926C60.3735 62.7935 60.6098 62.4706 60.8663 62.0213ZM60.8663 60.1728C60.7546 59.7019 60.592 59.3252 60.3812 59.0427C60.1678 58.7601 59.8884 58.5341 59.5378 58.3619C59.1873 58.1897 58.8215 58.1036 58.4354 58.1036C57.8004 58.1036 57.2543 58.3189 56.7971 58.7521C56.4643 59.0669 56.2103 59.5405 56.0401 60.1701H60.8663V60.1728Z" fill="white"/>
<path d="M70.6788 54.7887V64.2977H69.8584V63.1191C69.5078 63.5685 69.1166 63.9075 68.6823 64.1335C68.2479 64.3596 67.7729 64.4753 67.2573 64.4753C66.3403 64.4753 65.5579 64.1228 64.9077 63.4178C64.2574 62.7129 63.9348 61.8572 63.9348 60.8482C63.9348 59.8607 64.2625 59.0158 64.9178 58.3135C65.5732 57.6113 66.3606 57.2615 67.2801 57.2615C67.811 57.2615 68.2936 57.3825 68.7229 57.622C69.1522 57.8615 69.5307 58.222 69.8558 58.701V54.7914H70.6788V54.7887ZM67.3487 58.1117C66.8839 58.1117 66.4571 58.2328 66.0634 58.475C65.6697 58.7171 65.3598 59.0562 65.1261 59.4921C64.8924 59.928 64.7781 60.3908 64.7781 60.8778C64.7781 61.3594 64.895 61.8222 65.1287 62.2635C65.3624 62.7048 65.6773 63.0465 66.071 63.294C66.4648 63.5389 66.889 63.6627 67.3411 63.6627C67.7958 63.6627 68.2301 63.5416 68.6366 63.2967C69.043 63.0519 69.358 62.7236 69.5789 62.3092C69.7999 61.8949 69.9092 61.424 69.9092 60.9047C69.9092 60.1109 69.6628 59.4463 69.17 58.9136C68.6772 58.3781 68.0701 58.1117 67.3487 58.1117Z" fill="white"/>
<path d="M77.6921 54.7887H78.5253V60.2051L81.5277 57.4364H82.7521L79.1908 60.7083L82.9604 64.2977H81.7868L78.5253 61.2087V64.2977H77.6921V54.7887Z" fill="white"/>
<path d="M90.1489 62.0213L90.8525 62.4114C90.6214 62.8904 90.3546 63.2779 90.0549 63.5711C89.7552 63.8644 89.4123 64.0904 89.0363 64.2438C88.6604 64.3972 88.2311 64.4752 87.7561 64.4752C86.6994 64.4752 85.8739 64.1093 85.2769 63.3747C84.68 62.6402 84.3828 61.8114 84.3828 60.8858C84.3828 60.0167 84.6343 59.2391 85.1398 58.5583C85.7799 57.6919 86.6359 57.2587 87.7078 57.2587C88.8128 57.2587 89.6942 57.7027 90.3546 58.5906C90.8246 59.2176 91.0608 59.9979 91.0684 60.9369H85.2388C85.2541 61.7334 85.4954 62.3872 85.9602 62.8958C86.4251 63.4043 86.9991 63.6599 87.6824 63.6599C88.0127 63.6599 88.3327 63.598 88.6451 63.477C88.9576 63.3559 89.2217 63.1944 89.4402 62.9926C89.6587 62.7935 89.8949 62.4706 90.1489 62.0213ZM90.1489 60.1728C90.0371 59.7019 89.8746 59.3252 89.6637 59.0427C89.4504 58.7601 89.1709 58.5341 88.8204 58.3619C88.4699 58.1897 88.1041 58.1036 87.718 58.1036C87.083 58.1036 86.5368 58.3189 86.0796 58.7521C85.7469 59.0669 85.4928 59.5405 85.3227 60.1701H90.1489V60.1728Z" fill="white"/>
<path d="M98.9503 62.0213L99.654 62.4114C99.4228 62.8904 99.1561 63.2779 98.8564 63.5711C98.5566 63.8644 98.2137 64.0904 97.8378 64.2438C97.4618 64.3972 97.0326 64.4752 96.5576 64.4752C95.5009 64.4752 94.6753 64.1093 94.0784 63.3747C93.4815 62.6402 93.1843 61.8114 93.1843 60.8858C93.1843 60.0167 93.4357 59.2391 93.9412 58.5583C94.5813 57.6919 95.4374 57.2587 96.5093 57.2587C97.6142 57.2587 98.4957 57.7027 99.1561 58.5906C99.626 59.2176 99.8623 59.9979 99.8699 60.9369H94.0403C94.0555 61.7334 94.2968 62.3872 94.7617 62.8958C95.2265 63.4043 95.8006 63.6599 96.4839 63.6599C96.8141 63.6599 97.1342 63.598 97.4466 63.477C97.759 63.3559 98.0232 63.1944 98.2417 62.9926C98.4601 62.7935 98.6963 62.4706 98.9503 62.0213ZM98.9503 60.1728C98.8386 59.7019 98.676 59.3252 98.4652 59.0427C98.2518 58.7601 97.9724 58.5341 97.6219 58.3619C97.2713 58.1897 96.9055 58.1036 96.5194 58.1036C95.8844 58.1036 95.3383 58.3189 94.8811 58.7521C94.5483 59.0669 94.2943 59.5405 94.1241 60.1701H98.9503V60.1728Z" fill="white"/>
<path d="M102.311 57.4363H103.144V58.6983C103.474 58.2193 103.853 57.8588 104.28 57.6193C104.709 57.3798 105.186 57.2587 105.712 57.2587C106.632 57.2587 107.419 57.6085 108.074 58.3108C108.73 59.0131 109.055 59.858 109.055 60.8454C109.055 61.8545 108.73 62.7101 108.082 63.4151C107.434 64.12 106.652 64.4725 105.735 64.4725C105.219 64.4725 104.747 64.3595 104.313 64.1308C103.881 63.9048 103.49 63.5658 103.142 63.1164V66.8054H102.308V57.4363H102.311ZM105.646 58.1117C104.925 58.1117 104.318 58.3781 103.825 58.9108C103.332 59.4436 103.086 60.1082 103.086 60.902C103.086 61.4239 103.195 61.8921 103.416 62.3065C103.637 62.7209 103.949 63.0518 104.361 63.294C104.772 63.5362 105.204 63.6599 105.659 63.6599C106.106 63.6599 106.528 63.5362 106.921 63.2913C107.315 63.0464 107.63 62.702 107.864 62.2608C108.097 61.8195 108.214 61.3567 108.214 60.875C108.214 60.388 108.097 59.9252 107.866 59.4893C107.635 59.0534 107.323 58.7144 106.931 58.4722C106.535 58.2328 106.108 58.1117 105.646 58.1117Z" fill="white"/>
<path d="M116.947 62.0213L117.651 62.4114C117.42 62.8904 117.153 63.2779 116.853 63.5711C116.553 63.8644 116.211 64.0904 115.835 64.2438C115.459 64.3972 115.029 64.4752 114.554 64.4752C113.498 64.4752 112.672 64.1093 112.075 63.3747C111.478 62.6402 111.181 61.8114 111.181 60.8858C111.181 60.0167 111.433 59.2391 111.938 58.5583C112.578 57.6919 113.434 57.2587 114.506 57.2587C115.611 57.2587 116.492 57.7027 117.153 58.5906C117.623 59.2176 117.859 59.9979 117.867 60.9369H112.037C112.052 61.7334 112.294 62.3872 112.758 62.8958C113.223 63.4043 113.797 63.6599 114.481 63.6599C114.811 63.6599 115.131 63.598 115.443 63.477C115.756 63.3559 116.02 63.1944 116.238 62.9926C116.457 62.7935 116.693 62.4706 116.947 62.0213ZM116.947 60.1728C116.835 59.7019 116.673 59.3252 116.462 59.0427C116.249 58.7601 115.969 58.5341 115.619 58.3619C115.268 58.1897 114.902 58.1036 114.516 58.1036C113.881 58.1036 113.335 58.3189 112.878 58.7521C112.545 59.0669 112.291 59.5405 112.121 60.1701H116.947V60.1728Z" fill="white"/>
<path d="M119.98 57.4363H120.831V58.4399C121.085 58.0444 121.352 57.7484 121.634 57.5547C121.916 57.361 122.21 57.2614 122.515 57.2614C122.746 57.2614 122.993 57.3394 123.254 57.4955L122.82 58.2408C122.645 58.1601 122.497 58.1198 122.38 58.1198C122.104 58.1198 121.834 58.2408 121.578 58.483C121.321 58.7252 121.123 59.0992 120.988 59.6077C120.884 59.9979 120.834 60.7889 120.834 61.9782V64.2976H119.983V57.4363H119.98Z" fill="white"/>
</svg>
